# Blender 4.4.0
# www.blender.org
mtllib volcano.mtl
o Cone
v 0.000000 2.038871 -1.000000
v 0.382683 2.038871 -0.923880
v 0.707107 2.038871 -0.707107
v 0.923880 2.038871 -0.382683
v 1.000000 2.038871 0.000000
v 0.923880 2.038871 0.382683
v 0.707107 2.038871 0.707107
v 0.382683 2.038871 0.923880
v 0.000000 2.038871 1.000000
v -0.382683 2.038871 0.923880
v -0.707107 2.038871 0.707107
v -0.923880 2.038871 0.382683
v -1.000000 2.038871 0.000000
v -0.923880 2.038871 -0.382683
v -0.707107 2.038871 -0.707107
v -0.382683 2.038871 -0.923880
v 0.000000 0.794668 0.000000
v 0.191342 1.370600 0.461940
v 0.000000 -2.583755 -5.739793
v 2.196524 -2.583755 -5.302877
v 4.058647 -2.583755 -4.058647
v 5.302877 -2.583755 -2.196524
v 5.739793 -2.583755 -0.000000
v 5.302877 -2.583755 2.196524
v 4.058647 -2.583755 4.058647
v 2.196524 -2.583755 5.302877
v 0.000000 -2.583755 5.739793
v -2.196524 -2.583755 5.302877
v -4.058647 -2.583755 4.058647
v -5.302877 -2.583755 2.196524
v -5.739793 -2.583755 -0.000000
v -5.302877 -2.583755 -2.196524
v -4.058647 -2.583755 -4.058647
v -2.196524 -2.583755 -5.302877
vn -0.1532 0.6191 0.7702
vn -0.4363 0.6191 0.6530
vn -0.6530 0.6191 0.4363
vn -0.7702 0.6191 0.1532
vn -0.7702 0.6191 -0.1532
vn -0.6530 0.6191 -0.4363
vn -0.4983 0.6104 -0.6157
vn -0.0830 0.6104 -0.7877
vn 0.1532 0.6191 -0.7702
vn 0.4363 0.6191 -0.6530
vn 0.6530 0.6191 -0.4363
vn 0.7702 0.6191 -0.1532
vn 0.7702 0.6191 0.1532
vn 0.6530 0.6191 0.4363
vn -0.1376 0.7091 -0.6916
vn 0.4363 0.6191 0.6530
vn 0.1532 0.6191 0.7702
vn -0.0000 -1.0000 -0.0000
vn 0.6916 0.7091 0.1376
vn -0.1376 0.7091 0.6916
vn -0.6916 0.7091 -0.1376
vn 0.3917 0.7091 -0.5863
vn 0.5863 0.7091 0.3917
vn -0.3917 0.7091 0.5863
vn -0.5863 0.7091 -0.3917
vn 0.5863 0.7091 -0.3917
vn 0.3917 0.7091 0.5863
vn -0.5863 0.7091 0.3917
vn -0.3917 0.7091 -0.5863
vn 0.6916 0.7091 -0.1376
vn 0.1376 0.7091 -0.6916
vn 0.1376 0.7091 0.6916
vn -0.6916 0.7091 0.1376
vt 0.250000 0.490000
vt 0.250000 0.250000
vt 0.341844 0.471731
vt 0.419706 0.419706
vt 0.471731 0.341844
vt 0.490000 0.250000
vt 0.471731 0.158156
vt 0.419706 0.080294
vt 0.295922 0.139134
vt 0.341844 0.028269
vt 0.250000 0.010000
vt 0.158156 0.028269
vt 0.080294 0.080294
vt 0.028269 0.158156
vt 0.010000 0.250000
vt 0.028269 0.341844
vt 0.080294 0.419706
vt 0.158156 0.471731
vt 0.750000 0.490000
vt 0.841844 0.471731
vt 0.919706 0.419706
vt 0.971731 0.341844
vt 0.990000 0.250000
vt 0.971731 0.158156
vt 0.919706 0.080294
vt 0.841844 0.028269
vt 0.750000 0.010000
vt 0.658156 0.028269
vt 0.580294 0.080294
vt 0.528269 0.158156
vt 0.510000 0.250000
vt 0.528269 0.341844
vt 0.580294 0.419706
vt 0.658156 0.471731
s 0
f 1/1/1 17/2/1 2/3/1
f 2/3/2 17/2/2 3/4/2
f 3/4/3 17/2/3 4/5/3
f 4/5/4 17/2/4 5/6/4
f 5/6/5 17/2/5 6/7/5
f 6/7/6 17/2/6 7/8/6
f 7/8/7 17/2/7 18/9/7 8/10/7
f 8/10/8 18/9/8 17/2/8 9/11/8
f 9/11/9 17/2/9 10/12/9
f 10/12/10 17/2/10 11/13/10
f 11/13/11 17/2/11 12/14/11
f 12/14/12 17/2/12 13/15/12
f 13/15/13 17/2/13 14/16/13
f 14/16/14 17/2/14 15/17/14
f 16/18/15 1/1/15 19/1/15 34/18/15
f 15/17/16 17/2/16 16/18/16
f 16/18/17 17/2/17 1/1/17
f 19/19/18 20/20/18 21/21/18 22/22/18 23/23/18 24/24/18 25/25/18 26/26/18 27/27/18 28/28/18 29/29/18 30/30/18 31/31/18 32/32/18 33/33/18 34/34/18
f 5/6/19 6/7/19 24/7/19 23/6/19
f 9/11/20 10/12/20 28/12/20 27/11/20
f 13/15/21 14/16/21 32/16/21 31/15/21
f 2/3/22 3/4/22 21/4/22 20/3/22
f 6/7/23 7/8/23 25/8/23 24/7/23
f 10/12/24 11/13/24 29/13/24 28/12/24
f 14/16/25 15/17/25 33/17/25 32/16/25
f 3/4/26 4/5/26 22/5/26 21/4/26
f 7/8/27 8/10/27 26/10/27 25/8/27
f 11/13/28 12/14/28 30/14/28 29/13/28
f 15/17/29 16/18/29 34/18/29 33/17/29
f 4/5/30 5/6/30 23/6/30 22/5/30
f 1/1/31 2/3/31 20/3/31 19/1/31
f 8/10/32 9/11/32 27/11/32 26/10/32
f 12/14/33 13/15/33 31/15/33 30/14/33
